<?xml version="1.0" encoding="UTF-8"?>
<!-- Generator: Adobe Illustrator 19.1.0, SVG Export Plug-In . SVG Version: 6.00 Build 0)  -->
<svg xmlns="http://www.w3.org/2000/svg" xmlns:xlink="http://www.w3.org/1999/xlink" xmlns:dc="http://purl.org/dc/elements/1.1/" xmlns:cc="http://creativecommons.org/ns#" xmlns:rdf="http://www.w3.org/1999/02/22-rdf-syntax-ns#" version="1.1" id="DESIGNS" x="0px" y="0px" width="32px" height="32px" viewBox="0 0 32 32" style="enable-background:new 0 0 32 32;" xml:space="preserve">
<title property="dc:title">to believe</title><desc property="dc:description">An icon for "believe" from the Blueprint series on to [icon]. Downloaded from http://www.toicon.com/icons/blueprint_believe by 24.7.70.182 on 2018-11-03. Licensed CC-BY, see http://toicon.com/license/ for details.</desc>
<path class="blueprint_een" d="M24.649,9.068C23.562,6.098,20.04,4,16,4S8.438,6.098,7.351,9.068C2.67,10.331,0,12.477,0,15  c0,2.671,3.057,4.95,8.213,6.154C9.032,23.39,12.2,25,16,25s6.968-1.61,7.787-3.846C28.943,19.95,32,17.671,32,15  C32,12.477,29.33,10.331,24.649,9.068z M23,11c0,1.862-0.796,4-7,4s-7-2.138-7-4c0-2.757,3.14-5,7-5S23,8.243,23,11z M2,15  c0-1.485,2.273-3.074,6.004-4.052C8.003,10.965,8,10.982,8,11c0,4,3.582,5,8,5s8-1,8-5c0-0.018-0.003-0.035-0.004-0.053  C27.727,11.926,30,13.515,30,15c0,2.365-5.75,5-14,5S2,17.365,2,15z M16,23c-3.068,0-5.356-1.224-5.865-2.477  C11.937,20.83,13.918,21,16,21s4.063-0.17,5.865-0.477C21.356,21.776,19.068,23,16,23z" style="fill: #111918;"/>
<metadata><work rdf:about=""><format>image/svg+xml</format><type rdf:resource="http://purl.org/dc/dcmitype/StillImage"/><license rdf:resource="http://creativecommons.org/licenses/by/4.0/"/><attributionname>Shannon E Thomas</attributionname><attributionurl>http://www.toicon.com/icons/blueprint_believe</attributionurl></work></metadata></svg>
