<?xml version="1.0" encoding="UTF-8"?>
<!-- Generator: Adobe Illustrator 19.1.0, SVG Export Plug-In . SVG Version: 6.00 Build 0)  -->
<svg xmlns="http://www.w3.org/2000/svg" xmlns:xlink="http://www.w3.org/1999/xlink" xmlns:dc="http://purl.org/dc/elements/1.1/" xmlns:cc="http://creativecommons.org/ns#" xmlns:rdf="http://www.w3.org/1999/02/22-rdf-syntax-ns#" version="1.1" id="DESIGNS" x="0px" y="0px" width="32px" height="32px" viewBox="0 0 32 32" style="enable-background:new 0 0 32 32;" xml:space="preserve">
<title property="dc:title">to share</title><desc property="dc:description">An icon for "share" from the Blueprint series on to [icon]. Downloaded from http://www.toicon.com/icons/blueprint_share by 99.49.117.156 on 2018-11-03. Licensed CC-BY, see http://toicon.com/license/ for details.</desc>
<path class="blueprint_een" d="M31.293,11.293L24,4V1c0-0.552-0.448-1-1-1H2C1.448,0,1,0.448,1,1v30c0,0.552,0.448,1,1,1h21  c0.552,0,1-0.448,1-1V20l7.293-7.293C31.683,12.317,31.683,11.683,31.293,11.293z M10.219,19.871C11.807,9.168,21.587,9.002,22,9  c0.552,0,1-0.448,1-1V5.828L29.172,12L23,18.172V16c0-0.552-0.448-1-1-1C16.258,15,12.42,17.662,10.219,19.871z M22,30H3V2h19v6  c0,0-2.136,0.001-4.676,1H7v1h8.294c-0.863,0.519-1.719,1.175-2.511,2H7v1h4.92c-0.455,0.594-0.876,1.257-1.249,2H7v1h3.223  c-0.249,0.617-0.465,1.284-0.645,2H7v1h2.359c-0.045,0.238-0.092,0.475-0.129,0.724c-0.1,0.675,0.434,1.173,0.999,1.173  c0.242,0,0.489-0.091,0.694-0.299c0.509-0.514,1.123-1.064,1.844-1.598H18v-1h-3.697c1.974-1.127,4.522-2,7.697-2V30z M7,21h11v1H7  V21z" style="fill: #111918;"/>
<metadata><work rdf:about=""><format>image/svg+xml</format><type rdf:resource="http://purl.org/dc/dcmitype/StillImage"/><license rdf:resource="http://creativecommons.org/licenses/by/4.0/"/><attributionname>Shannon E Thomas</attributionname><attributionurl>http://www.toicon.com/icons/blueprint_share</attributionurl></work></metadata></svg>
