<?xml version="1.0" encoding="UTF-8"?>
<!-- Generator: Adobe Illustrator 19.1.0, SVG Export Plug-In . SVG Version: 6.00 Build 0)  -->
<svg xmlns="http://www.w3.org/2000/svg" xmlns:xlink="http://www.w3.org/1999/xlink" xmlns:dc="http://purl.org/dc/elements/1.1/" xmlns:cc="http://creativecommons.org/ns#" xmlns:rdf="http://www.w3.org/1999/02/22-rdf-syntax-ns#" version="1.1" id="DESIGNS" x="0px" y="0px" width="32px" height="32px" viewBox="0 0 32 32" style="enable-background:new 0 0 32 32;" xml:space="preserve">
<title property="dc:title">to ring</title><desc property="dc:description">An icon for "ring" from the Blueprint series on to [icon]. Downloaded from http://www.toicon.com/icons/blueprint_ring by 99.49.117.156 on 2018-11-03. Licensed CC-BY, see http://toicon.com/license/ for details.</desc>
<path class="blueprint_een" d="M29,25c-3,0-3-11-3-11c0-4.602-3.113-8.468-7.344-9.632C18.868,3.956,19,3.496,19,3  c0-1.657-1.343-3-3-3s-3,1.343-3,3c0,0.496,0.132,0.956,0.344,1.368C9.113,5.532,6,9.398,6,14c0,0,0,11-3,11c-0.552,0-1,0.448-1,1  c0,0.552,0.448,1,1,1h9.141C12.058,27.321,12,27.653,12,28c0,2.209,1.791,4,4,4s4-1.791,4-4c0-0.347-0.058-0.679-0.141-1H29  c0.552,0,1-0.448,1-1C30,25.448,29.552,25,29,25z M15,3c0-0.551,0.449-1,1-1s1,0.449,1,1s-0.449,1-1,1S15,3.551,15,3z M8,14  c0-4.411,3.589-8,8-8s8,3.589,8,8c0,0.118,0.004,2.919,0.393,5.77c0.07,0.513,0.184,1.33,0.392,2.23H7.214  c0.208-0.9,0.322-1.717,0.392-2.23C7.996,16.919,8,14.118,8,14z M16,30c-1.103,0-2-0.897-2-2c0-0.136,0.025-0.294,0.078-0.499  L14.466,26h3.067l0.389,1.501C17.975,27.706,18,27.864,18,28C18,29.103,17.103,30,16,30z M6.098,25c0.364-0.613,0.636-1.309,0.848-2  h18.108c0.212,0.691,0.484,1.387,0.848,2H6.098z" style="fill: #111918;"/>
<metadata><work rdf:about=""><format>image/svg+xml</format><type rdf:resource="http://purl.org/dc/dcmitype/StillImage"/><license rdf:resource="http://creativecommons.org/licenses/by/4.0/"/><attributionname>Shannon E Thomas</attributionname><attributionurl>http://www.toicon.com/icons/blueprint_ring</attributionurl></work></metadata></svg>
