<?xml version="1.0" encoding="UTF-8"?>
<!-- Generator: Adobe Illustrator 19.1.0, SVG Export Plug-In . SVG Version: 6.00 Build 0)  -->
<svg xmlns="http://www.w3.org/2000/svg" xmlns:xlink="http://www.w3.org/1999/xlink" xmlns:dc="http://purl.org/dc/elements/1.1/" xmlns:cc="http://creativecommons.org/ns#" xmlns:rdf="http://www.w3.org/1999/02/22-rdf-syntax-ns#" version="1.1" id="DESIGNS" x="0px" y="0px" width="32px" height="32px" viewBox="0 0 32 32" style="enable-background:new 0 0 32 32;" xml:space="preserve">
<title property="dc:title">to watch</title><desc property="dc:description">An icon for "watch" from the Blueprint series on to [icon]. Downloaded from http://www.toicon.com/icons/blueprint_watch by 99.49.117.156 on 2018-11-03. Licensed CC-BY, see http://toicon.com/license/ for details.</desc>
<path class="blueprint_een" d="M17.707,5l3.646-3.646l-0.707-0.707L16.293,5h-0.586l-4.354-4.354l-0.707,0.707L14.293,5H1  C0.448,5,0,5.448,0,6v22c0,0.552,0.448,1,1,1h30c0.552,0,1-0.448,1-1V6c0-0.552-0.448-1-1-1H17.707z M30,27H2V7h28V27z M29,8H3v16  h26V8z M28,23H4V9h24V23z M4,26H3v-1h1V26z M5,25h1v1H5V25z" style="fill: #111918;"/>
<metadata><work rdf:about=""><format>image/svg+xml</format><type rdf:resource="http://purl.org/dc/dcmitype/StillImage"/><license rdf:resource="http://creativecommons.org/licenses/by/4.0/"/><attributionname>Shannon E Thomas</attributionname><attributionurl>http://www.toicon.com/icons/blueprint_watch</attributionurl></work></metadata></svg>
